{
  "accessors": [
    {
      "bufferView": 2,
      "componentType": 5126,
      "count": 65532,
      "max": [
        -24.19590950012207,
        8.112410545349121,
        30.88762664794922
      ],
      "min": [
        -54.1043586730957,
        -9.101876258850098,
        2.410456895828247
      ],
      "type": "VEC3"
    },
    {
      "bufferView": 2,
      "byteOffset": 786384,
      "componentType": 5126,
      "count": 65532,
      "max": [
        0.9996064305305481,
        1.0,
        0.9999997615814209
      ],
      "min": [
        -0.9999984502792358,
        -1.0,
        -0.9999203085899353
      ],
      "type": "VEC3"
    },
    {
      "bufferView": 1,
      "componentType": 5126,
      "count": 65532,
      "max": [
        0.0,
        0.0
      ],
      "min": [
        0.0,
        0.0
      ],
      "type": "VEC2"
    },
    {
      "bufferView": 0,
      "componentType": 5125,
      "count": 319560,
      "type": "SCALAR"
    },
    {
      "bufferView": 2,
      "byteOffset": 1572768,
      "componentType": 5126,
      "count": 65532,
      "max": [
        -24.05561065673828,
        8.298124313354492,
        31.62395477294922
      ],
      "min": [
        -53.605003356933594,
        -9.801876068115234,
        3.1474668979644775
      ],
      "type": "VEC3"
    },
    {
      "bufferView": 2,
      "byteOffset": 2359152,
      "componentType": 5126,
      "count": 65532,
      "max": [
        0.9999879002571106,
        1.0,
        0.9991400241851807
      ],
      "min": [
        -0.9996594786643982,
        -1.0,
        -0.9953509569168091
      ],
      "type": "VEC3"
    },
    {
      "bufferView": 1,
      "byteOffset": 524256,
      "componentType": 5126,
      "count": 65532,
      "max": [
        0.0,
        0.0
      ],
      "min": [
        0.0,
        0.0
      ],
      "type": "VEC2"
    },
    {
      "bufferView": 0,
      "byteOffset": 1278240,
      "componentType": 5125,
      "count": 331290,
      "type": "SCALAR"
    },
    {
      "bufferView": 2,
      "byteOffset": 3145536,
      "componentType": 5126,
      "count": 65533,
      "max": [
        -24.11661148071289,
        8.298124313354492,
        31.681018829345703
      ],
      "min": [
        -53.98629379272461,
        -9.730445861816406,
        3.0908689498901367
      ],
      "type": "VEC3"
    },
    {
      "bufferView": 2,
      "byteOffset": 3931932,
      "componentType": 5126,
      "count": 65533,
      "max": [
        0.9999281764030457,
        1.0,
        0.9999252557754517
      ],
      "min": [
        -0.9997888803482056,
        -1.0,
        -0.9999416470527649
      ],
      "type": "VEC3"
    },
    {
      "bufferView": 1,
      "byteOffset": 1048512,
      "componentType": 5126,
      "count": 65533,
      "max": [
        0.0,
        0.0
      ],
      "min": [
        0.0,
        0.0
      ],
      "type": "VEC2"
    },
    {
      "bufferView": 0,
      "byteOffset": 2603400,
      "componentType": 5125,
      "count": 316317,
      "type": "SCALAR"
    },
    {
      "bufferView": 2,
      "byteOffset": 4718328,
      "componentType": 5126,
      "count": 41243,
      "max": [
        -24.05561065673828,
        8.298124313354492,
        31.68256187438965
      ],
      "min": [
        -54.02567672729492,
        -9.787590026855469,
        2.9616100788116455
      ],
      "type": "VEC3"
    },
    {
      "bufferView": 2,
      "byteOffset": 5213244,
      "componentType": 5126,
      "count": 41243,
      "max": [
        0.9999879002571106,
        1.0,
        0.9999817609786987
      ],
      "min": [
        -0.9999984502792358,
        -1.0,
        -0.999919593334198
      ],
      "type": "VEC3"
    },
    {
      "bufferView": 1,
      "byteOffset": 1572776,
      "componentType": 5126,
      "count": 41243,
      "max": [
        0.0,
        0.0
      ],
      "min": [
        0.0,
        0.0
      ],
      "type": "VEC2"
    },
    {
      "bufferView": 0,
      "byteOffset": 3868668,
      "componentType": 5125,
      "count": 103605,
      "type": "SCALAR"
    },
    {
      "bufferView": 2,
      "byteOffset": 5708160,
      "componentType": 5126,
      "count": 17665,
      "max": [
        -18.736440658569336,
        15.704110145568848,
        51.8729248046875
      ],
      "min": [
        -41.565635681152344,
        -16.78467559814453,
        23.39564323425293
      ],
      "type": "VEC3"
    },
    {
      "bufferView": 2,
      "byteOffset": 5920140,
      "componentType": 5126,
      "count": 17665,
      "max": [
        0.9999394416809082,
        0.9999778270721436,
        0.9998771548271179
      ],
      "min": [
        -0.999923050403595,
        -0.9999799728393555,
        -0.9969034194946289
      ],
      "type": "VEC3"
    },
    {
      "bufferView": 1,
      "byteOffset": 1902720,
      "componentType": 5126,
      "count": 17665,
      "max": [
        0.9800159931182861,
        0.9902399778366089
      ],
      "min": [
        0.12695999443531036,
        0.009727999567985535
      ],
      "type": "VEC2"
    },
    {
      "bufferView": 0,
      "byteOffset": 4283088,
      "componentType": 5125,
      "count": 99072,
      "type": "SCALAR"
    }
  ],
  "asset": {
    "extras": {
      "author": "Huargenn (https://sketchfab.com/Huargenn)",
      "license": "CC-BY-4.0 (http://creativecommons.org/licenses/by/4.0/)",
      "source": "https://sketchfab.com/3d-models/helmet-baratheon-9066526b2b2a4893bfe7991879c7143a",
      "title": "Helmet Baratheon"
    },
    "generator": "Sketchfab-12.67.0",
    "version": "2.0"
  },
  "bufferViews": [
    {
      "buffer": 0,
      "byteLength": 4679376,
      "name": "floatBufferViews",
      "target": 34963
    },
    {
      "buffer": 0,
      "byteLength": 2044040,
      "byteOffset": 4679376,
      "byteStride": 8,
      "name": "floatBufferViews",
      "target": 34962
    },
    {
      "buffer": 0,
      "byteLength": 6132120,
      "byteOffset": 6723416,
      "byteStride": 12,
      "name": "floatBufferViews",
      "target": 34962
    }
  ],
  "buffers": [
    {
      "byteLength": 12855536,
      "uri": "scene.bin"
    }
  ],
  "images": [
    {
      "uri": "textures/material_0_baseColor.jpeg"
    },
    {
      "uri": "textures/Mat_1_baseColor.jpeg"
    }
  ],
  "materials": [
    {
      "doubleSided": true,
      "name": "material_0",
      "pbrMetallicRoughness": {
        "baseColorTexture": {
          "index": 0
        },
        "metallicFactor": 0.0,
        "roughnessFactor": 0.6
      }
    },
    {
      "doubleSided": true,
      "name": "Mat_1",
      "pbrMetallicRoughness": {
        "baseColorTexture": {
          "index": 1
        },
        "metallicFactor": 0.0,
        "roughnessFactor": 0.6
      }
    }
  ],
  "meshes": [
    {
      "name": "Object_0",
      "primitives": [
        {
          "attributes": {
            "NORMAL": 1,
            "POSITION": 0,
            "TEXCOORD_0": 2
          },
          "indices": 3,
          "material": 0,
          "mode": 4
        }
      ]
    },
    {
      "name": "Object_1",
      "primitives": [
        {
          "attributes": {
            "NORMAL": 5,
            "POSITION": 4,
            "TEXCOORD_0": 6
          },
          "indices": 7,
          "material": 0,
          "mode": 4
        }
      ]
    },
    {
      "name": "Object_2",
      "primitives": [
        {
          "attributes": {
            "NORMAL": 9,
            "POSITION": 8,
            "TEXCOORD_0": 10
          },
          "indices": 11,
          "material": 0,
          "mode": 4
        }
      ]
    },
    {
      "name": "Object_3",
      "primitives": [
        {
          "attributes": {
            "NORMAL": 13,
            "POSITION": 12,
            "TEXCOORD_0": 14
          },
          "indices": 15,
          "material": 0,
          "mode": 4
        }
      ]
    },
    {
      "name": "Object_4",
      "primitives": [
        {
          "attributes": {
            "NORMAL": 17,
            "POSITION": 16,
            "TEXCOORD_0": 18
          },
          "indices": 19,
          "material": 1,
          "mode": 4
        }
      ]
    }
  ],
  "nodes": [
    {
      "children": [
        1
      ],
      "matrix": [
        1.0,
        0.0,
        0.0,
        0.0,
        0.0,
        2.220446049250313e-16,
        -1.0,
        0.0,
        0.0,
        1.0,
        2.220446049250313e-16,
        0.0,
        0.0,
        0.0,
        0.0,
        1.0
      ],
      "name": "Sketchfab_model"
    },
    {
      "children": [
        2,
        3,
        4,
        5,
        6
      ],
      "name": "5f4f101e56704f4aade84bfcb23979b4.obj.cleaner"
    },
    {
      "mesh": 0,
      "name": "Object_2"
    },
    {
      "mesh": 1,
      "name": "Object_3"
    },
    {
      "mesh": 2,
      "name": "Object_4"
    },
    {
      "mesh": 3,
      "name": "Object_5"
    },
    {
      "mesh": 4,
      "name": "Object_6"
    }
  ],
  "samplers": [
    {
      "magFilter": 9729,
      "minFilter": 9987,
      "wrapS": 10497,
      "wrapT": 10497
    }
  ],
  "scene": 0,
  "scenes": [
    {
      "name": "Sketchfab_Scene",
      "nodes": [
        0
      ]
    }
  ],
  "textures": [
    {
      "sampler": 0,
      "source": 0
    },
    {
      "sampler": 0,
      "source": 1
    }
  ]
}
