{
  "accessors": [
    {
      "bufferView": 2,
      "componentType": 5126,
      "count": 94,
      "max": [
        28.099077224731445,
        27.672191619873047,
        535.5367431640625
      ],
      "min": [
        -28.099077224731445,
        -27.672197341918945,
        0.0
      ],
      "type": "VEC3"
    },
    {
      "bufferView": 2,
      "byteOffset": 1128,
      "componentType": 5126,
      "count": 94,
      "max": [
        0.9999812245368958,
        0.984789252281189,
        0.006144700571894646
      ],
      "min": [
        -0.9999812245368958,
        -0.9847893118858337,
        -1.0
      ],
      "type": "VEC3"
    },
    {
      "bufferView": 1,
      "componentType": 5126,
      "count": 94,
      "max": [
        1.0277777910232544,
        1.0
      ],
      "min": [
        0.007596075534820557,
        0.0
      ],
      "type": "VEC2"
    },
    {
      "bufferView": 0,
      "componentType": 5125,
      "count": 264,
      "type": "SCALAR"
    },
    {
      "bufferView": 2,
      "byteOffset": 2256,
      "componentType": 5126,
      "count": 228,
      "max": [
        34.48078536987305,
        33.95697021484375,
        752.3755493164063
      ],
      "min": [
        -34.48078536987305,
        -33.95697784423828,
        535.5367431640625
      ],
      "type": "VEC3"
    },
    {
      "bufferView": 2,
      "byteOffset": 4992,
      "componentType": 5126,
      "count": 228,
      "max": [
        0.9918540120124817,
        0.9767857193946838,
        1.0
      ],
      "min": [
        -0.9918539524078369,
        -0.9767857789993286,
        -0.9759350419044495
      ],
      "type": "VEC3"
    },
    {
      "bufferView": 3,
      "componentType": 5126,
      "count": 228,
      "max": [
        1.0,
        1.0,
        0.9271151423454285,
        1.0
      ],
      "min": [
        -0.9992828369140625,
        -1.0,
        -0.9271151423454285,
        1.0
      ],
      "type": "VEC4"
    },
    {
      "bufferView": 1,
      "byteOffset": 752,
      "componentType": 5126,
      "count": 228,
      "max": [
        1.0277777910232544,
        0.9823089838027954
      ],
      "min": [
        0.027777820825576782,
        0.7049999833106995
      ],
      "type": "VEC2"
    },
    {
      "bufferView": 0,
      "byteOffset": 1056,
      "componentType": 5125,
      "count": 864,
      "type": "SCALAR"
    },
    {
      "bufferView": 2,
      "byteOffset": 7728,
      "componentType": 5126,
      "count": 162,
      "max": [
        33.36788558959961,
        32.8609504699707,
        805.5032958984375
      ],
      "min": [
        -33.36788558959961,
        -32.860958099365234,
        752.3026123046875
      ],
      "type": "VEC3"
    },
    {
      "bufferView": 2,
      "byteOffset": 9672,
      "componentType": 5126,
      "count": 162,
      "max": [
        0.9857935309410095,
        0.9708172082901001,
        1.0
      ],
      "min": [
        -0.9857935905456543,
        -0.9708172082901001,
        -0.8253929018974304
      ],
      "type": "VEC3"
    },
    {
      "bufferView": 1,
      "byteOffset": 2576,
      "componentType": 5126,
      "count": 162,
      "max": [
        0.9905776977539063,
        0.9994999766349792
      ],
      "min": [
        0.0005000000237487257,
        0.0005000000237487257
      ],
      "type": "VEC2"
    },
    {
      "bufferView": 0,
      "byteOffset": 4512,
      "componentType": 5125,
      "count": 486,
      "type": "SCALAR"
    },
    {
      "bufferView": 2,
      "byteOffset": 11616,
      "componentType": 5126,
      "count": 55,
      "max": [
        1299.6715087890625,
        203.63259887695313,
        749.02978515625
      ],
      "min": [
        3.364990234375,
        -48.45591735839844,
        539.2893676757813
      ],
      "type": "VEC3"
    },
    {
      "bufferView": 2,
      "byteOffset": 12276,
      "componentType": 5126,
      "count": 55,
      "max": [
        0.9893926382064819,
        0.8257347941398621,
        0.9715119004249573
      ],
      "min": [
        -0.7526931166648865,
        -0.9987283945083618,
        -0.9458956718444824
      ],
      "type": "VEC3"
    },
    {
      "bufferView": 3,
      "byteOffset": 3648,
      "componentType": 5126,
      "count": 55,
      "max": [
        0.9997891783714294,
        0.7643144726753235,
        0.9992066621780396,
        1.0
      ],
      "min": [
        -0.9987189173698425,
        -0.8653734922409058,
        -0.9938901662826538,
        -1.0
      ],
      "type": "VEC4"
    },
    {
      "bufferView": 1,
      "byteOffset": 3872,
      "componentType": 5126,
      "count": 55,
      "max": [
        0.9916766285896301,
        0.9795394539833069
      ],
      "min": [
        0.02966099977493286,
        0.2909405827522278
      ],
      "type": "VEC2"
    },
    {
      "bufferView": 0,
      "byteOffset": 6456,
      "componentType": 5125,
      "count": 126,
      "type": "SCALAR"
    },
    {
      "bufferView": 2,
      "byteOffset": 12936,
      "componentType": 5126,
      "count": 27,
      "max": [
        1299.6715087890625,
        203.63259887695313,
        749.02978515625
      ],
      "min": [
        3.364990234375,
        -41.39202880859375,
        539.2893676757813
      ],
      "type": "VEC3"
    },
    {
      "bufferView": 2,
      "byteOffset": 13260,
      "componentType": 5126,
      "count": 27,
      "max": [
        0.9893926382064819,
        0.9987042546272278,
        0.9715119004249573
      ],
      "min": [
        -0.653419017791748,
        -0.3459561765193939,
        -0.9458956718444824
      ],
      "type": "VEC3"
    },
    {
      "bufferView": 3,
      "byteOffset": 4528,
      "componentType": 5126,
      "count": 27,
      "max": [
        -0.10320645570755005,
        0.6543038487434387,
        0.6256352663040161,
        1.0
      ],
      "min": [
        -0.9986929297447205,
        -0.6534104943275452,
        -0.9309558272361755,
        -1.0
      ],
      "type": "VEC4"
    },
    {
      "bufferView": 1,
      "byteOffset": 4312,
      "componentType": 5126,
      "count": 27,
      "max": [
        0.9935016632080078,
        0.7118365168571472
      ],
      "min": [
        0.028251489624381065,
        0.29094064235687256
      ],
      "type": "VEC2"
    },
    {
      "bufferView": 0,
      "byteOffset": 6960,
      "componentType": 5125,
      "count": 60,
      "type": "SCALAR"
    }
  ],
  "asset": {
    "extras": {
      "author": "Anthony Yanez (https://sketchfab.com/paulyanez)",
      "license": "CC-BY-4.0 (http://creativecommons.org/licenses/by/4.0/)",
      "source": "https://sketchfab.com/3d-models/targaryen-banner-game-of-thrones-d1aa4d5f4e6f4fafb85b639c43f594c7",
      "title": "Targaryen Banner (Game of Thrones)"
    },
    "generator": "Sketchfab-12.66.0",
    "version": "2.0"
  },
  "bufferViews": [
    {
      "buffer": 0,
      "byteLength": 7200,
      "name": "floatBufferViews",
      "target": 34963
    },
    {
      "buffer": 0,
      "byteLength": 4528,
      "byteOffset": 7200,
      "byteStride": 8,
      "name": "floatBufferViews",
      "target": 34962
    },
    {
      "buffer": 0,
      "byteLength": 13584,
      "byteOffset": 11728,
      "byteStride": 12,
      "name": "floatBufferViews",
      "target": 34962
    },
    {
      "buffer": 0,
      "byteLength": 4960,
      "byteOffset": 25312,
      "byteStride": 16,
      "name": "floatBufferViews",
      "target": 34962
    }
  ],
  "buffers": [
    {
      "byteLength": 30272,
      "uri": "scene.bin"
    }
  ],
  "images": [
    {
      "uri": "textures/10_-_Default_baseColor.jpeg"
    },
    {
      "uri": "textures/10_-_Default_normal.png"
    },
    {
      "uri": "textures/03_-_Default_baseColor.jpeg"
    },
    {
      "uri": "textures/03_-_Default_normal.png"
    },
    {
      "uri": "textures/08_-_Default_baseColor.jpeg"
    },
    {
      "uri": "textures/08_-_Default_normal.png"
    }
  ],
  "materials": [
    {
      "doubleSided": true,
      "name": "04_-_Default",
      "pbrMetallicRoughness": {
        "baseColorFactor": [
          0.0,
          0.0,
          0.0,
          1.0
        ],
        "metallicFactor": 0.4041539634,
        "roughnessFactor": 0.0
      }
    },
    {
      "doubleSided": true,
      "name": "10_-_Default",
      "normalTexture": {
        "index": 1
      },
      "pbrMetallicRoughness": {
        "baseColorTexture": {
          "index": 0
        },
        "roughnessFactor": 0.8929713596
      }
    },
    {
      "doubleSided": true,
      "name": "09_-_Default",
      "pbrMetallicRoughness": {
        "baseColorFactor": [
          0.176471,
          0.176471,
          0.176471,
          1.0
        ],
        "roughnessFactor": 0.0
      }
    },
    {
      "doubleSided": true,
      "name": "03_-_Default",
      "normalTexture": {
        "index": 3
      },
      "pbrMetallicRoughness": {
        "baseColorTexture": {
          "index": 2
        },
        "roughnessFactor": 0.258939384691643
      }
    },
    {
      "doubleSided": true,
      "name": "08_-_Default",
      "normalTexture": {
        "index": 5
      },
      "pbrMetallicRoughness": {
        "baseColorTexture": {
          "index": 4
        },
        "roughnessFactor": 0.0
      }
    }
  ],
  "meshes": [
    {
      "name": "Pole_04 - Default_0",
      "primitives": [
        {
          "attributes": {
            "NORMAL": 1,
            "POSITION": 0,
            "TEXCOORD_0": 2
          },
          "indices": 3,
          "material": 0,
          "mode": 4
        }
      ]
    },
    {
      "name": "Pole_10 - Default_0",
      "primitives": [
        {
          "attributes": {
            "NORMAL": 5,
            "POSITION": 4,
            "TANGENT": 6,
            "TEXCOORD_0": 7
          },
          "indices": 8,
          "material": 1,
          "mode": 4
        }
      ]
    },
    {
      "name": "Pole_09 - Default_0",
      "primitives": [
        {
          "attributes": {
            "NORMAL": 10,
            "POSITION": 9,
            "TEXCOORD_0": 11
          },
          "indices": 12,
          "material": 2,
          "mode": 4
        }
      ]
    },
    {
      "name": "Pole_03 - Default_0",
      "primitives": [
        {
          "attributes": {
            "NORMAL": 14,
            "POSITION": 13,
            "TANGENT": 15,
            "TEXCOORD_0": 16
          },
          "indices": 17,
          "material": 3,
          "mode": 4
        }
      ]
    },
    {
      "name": "Pole_08 - Default_0",
      "primitives": [
        {
          "attributes": {
            "NORMAL": 19,
            "POSITION": 18,
            "TANGENT": 20,
            "TEXCOORD_0": 21
          },
          "indices": 22,
          "material": 4,
          "mode": 4
        }
      ]
    }
  ],
  "nodes": [
    {
      "children": [
        1
      ],
      "matrix": [
        1.0,
        0.0,
        0.0,
        0.0,
        0.0,
        2.220446049250313e-16,
        -1.0,
        0.0,
        0.0,
        1.0,
        2.220446049250313e-16,
        0.0,
        0.0,
        0.0,
        0.0,
        1.0
      ],
      "name": "Sketchfab_model"
    },
    {
      "children": [
        2
      ],
      "matrix": [
        1.0,
        0.0,
        0.0,
        0.0,
        0.0,
        0.0,
        1.0,
        0.0,
        0.0,
        -1.0,
        0.0,
        0.0,
        0.0,
        0.0,
        0.0,
        1.0
      ],
      "name": "Targaryen Flag.FBX"
    },
    {
      "children": [
        3
      ],
      "name": "RootNode"
    },
    {
      "children": [
        4,
        5,
        6,
        7,
        8
      ],
      "matrix": [
        1.0,
        0.0,
        0.0,
        0.0,
        0.0,
        2.220446049250313e-16,
        -1.0,
        0.0,
        0.0,
        3.417093515396118,
        7.587471796180174e-16,
        0.0,
        -648.2172241210938,
        -2137.00390625,
        6.143820285797119,
        1.0
      ],
      "name": "Pole"
    },
    {
      "mesh": 0,
      "name": "Pole_04 - Default_0"
    },
    {
      "mesh": 1,
      "name": "Pole_10 - Default_0"
    },
    {
      "mesh": 2,
      "name": "Pole_09 - Default_0"
    },
    {
      "mesh": 3,
      "name": "Pole_03 - Default_0"
    },
    {
      "mesh": 4,
      "name": "Pole_08 - Default_0"
    }
  ],
  "samplers": [
    {
      "magFilter": 9729,
      "minFilter": 9987,
      "wrapS": 10497,
      "wrapT": 10497
    }
  ],
  "scene": 0,
  "scenes": [
    {
      "name": "Sketchfab_Scene",
      "nodes": [
        0
      ]
    }
  ],
  "textures": [
    {
      "sampler": 0,
      "source": 0
    },
    {
      "sampler": 0,
      "source": 1
    },
    {
      "sampler": 0,
      "source": 2
    },
    {
      "sampler": 0,
      "source": 3
    },
    {
      "sampler": 0,
      "source": 4
    },
    {
      "sampler": 0,
      "source": 5
    }
  ]
}
