{
  "accessors": [
    {
      "bufferView": 2,
      "componentType": 5126,
      "count": 2128,
      "max": [
        75.60541534423828,
        75.58427429199219,
        72.99380493164063
      ],
      "min": [
        -75.60200500488281,
        -75.60221862792969,
        -75.75950622558594
      ],
      "type": "VEC3"
    },
    {
      "bufferView": 2,
      "byteOffset": 25536,
      "componentType": 5126,
      "count": 2128,
      "max": [
        0.9999999403953552,
        0.999826967716217,
        0.984565258026123
      ],
      "min": [
        -1.0,
        -1.0,
        -0.9999997019767761
      ],
      "type": "VEC3"
    },
    {
      "bufferView": 1,
      "componentType": 5126,
      "count": 2128,
      "max": [
        0.9134554266929626,
        0.9385683536529541
      ],
      "min": [
        0.11295424401760101,
        0.13836440443992615
      ],
      "type": "VEC2"
    },
    {
      "bufferView": 0,
      "componentType": 5125,
      "count": 9396,
      "type": "SCALAR"
    }
  ],
  "asset": {
    "extras": {
      "author": "Yanez Designs (https://sketchfab.com/Yanez-Designs)",
      "license": "CC-BY-4.0 (http://creativecommons.org/licenses/by/4.0/)",
      "source": "https://sketchfab.com/3d-models/dragon-egg-house-of-the-dragon-c1230f37fc42432eb45190a46e379a23",
      "title": "Dragon Egg (House of the Dragon)"
    },
    "generator": "Sketchfab-14.32.1",
    "version": "2.0"
  },
  "bufferViews": [
    {
      "buffer": 0,
      "byteLength": 37584,
      "name": "floatBufferViews",
      "target": 34963
    },
    {
      "buffer": 0,
      "byteLength": 17024,
      "byteOffset": 37584,
      "byteStride": 8,
      "name": "floatBufferViews",
      "target": 34962
    },
    {
      "buffer": 0,
      "byteLength": 51072,
      "byteOffset": 54608,
      "byteStride": 12,
      "name": "floatBufferViews",
      "target": 34962
    }
  ],
  "buffers": [
    {
      "byteLength": 105680,
      "uri": "scene.bin"
    }
  ],
  "images": [
    {
      "uri": "textures/Dragon_Egg_baseColor.png"
    },
    {
      "uri": "textures/Dragon_Egg_emissive.png"
    }
  ],
  "materials": [
    {
      "doubleSided": true,
      "emissiveFactor": [
        0.41142982530994376,
        0.41142982530994376,
        0.41142982530994376
      ],
      "emissiveTexture": {
        "index": 1
      },
      "name": "Dragon_Egg",
      "pbrMetallicRoughness": {
        "baseColorTexture": {
          "index": 0
        },
        "roughnessFactor": 0.7333325206324439
      }
    }
  ],
  "meshes": [
    {
      "name": "Dragon Egg_Dragon Egg_0",
      "primitives": [
        {
          "attributes": {
            "NORMAL": 1,
            "POSITION": 0,
            "TEXCOORD_0": 2
          },
          "indices": 3,
          "material": 0,
          "mode": 4
        }
      ]
    }
  ],
  "nodes": [
    {
      "children": [
        1
      ],
      "matrix": [
        1.0,
        0.0,
        0.0,
        0.0,
        0.0,
        2.220446049250313e-16,
        -1.0,
        0.0,
        0.0,
        1.0,
        2.220446049250313e-16,
        0.0,
        0.0,
        0.0,
        0.0,
        1.0
      ],
      "name": "Sketchfab_model"
    },
    {
      "children": [
        2
      ],
      "matrix": [
        0.02539999969303608,
        0.0,
        0.0,
        0.0,
        0.0,
        0.0,
        0.02539999969303608,
        0.0,
        0.0,
        -0.02539999969303608,
        0.0,
        0.0,
        0.0,
        0.0,
        0.0,
        1.0
      ],
      "name": "dragon_egg.FBX"
    },
    {
      "children": [
        3
      ],
      "name": "RootNode"
    },
    {
      "children": [
        4
      ],
      "matrix": [
        1.0,
        0.0,
        0.0,
        0.0,
        0.0,
        2.220446049250313e-16,
        -1.0,
        0.0,
        0.0,
        1.6135590076446533,
        3.582820723756826e-16,
        0.0,
        0.0,
        -0.0007925701793283224,
        -3.4644342949974316e-11,
        1.0
      ],
      "name": "Dragon Egg"
    },
    {
      "children": [
        5
      ],
      "matrix": [
        1.0,
        0.0,
        -0.0,
        0.0,
        0.0,
        1.0,
        0.0,
        0.0,
        0.0,
        0.0,
        1.0,
        0.0,
        0.0,
        -3.4644342949974316e-11,
        0.0005582384765148163,
        1.0
      ],
      "name": "Object_4"
    },
    {
      "mesh": 0,
      "name": "Dragon Egg_Dragon Egg_0"
    }
  ],
  "samplers": [
    {
      "magFilter": 9729,
      "minFilter": 9987,
      "wrapS": 10497,
      "wrapT": 10497
    }
  ],
  "scene": 0,
  "scenes": [
    {
      "name": "Sketchfab_Scene",
      "nodes": [
        0
      ]
    }
  ],
  "textures": [
    {
      "sampler": 0,
      "source": 0
    },
    {
      "sampler": 0,
      "source": 1
    }
  ]
}
