{
  "accessors": [
    {
      "bufferView": 3,
      "componentType": 5126,
      "count": 85,
      "max": [
        14.32979679107666,
        373.9552917480469,
        18.598896026611328
      ],
      "min": [
        -12.626866340637207,
        318.4432678222656,
        -8.350067138671875
      ],
      "type": "VEC3"
    },
    {
      "bufferView": 3,
      "byteOffset": 1020,
      "componentType": 5126,
      "count": 85,
      "max": [
        0.9736632704734802,
        0.9884480834007263,
        0.9949291944503784
      ],
      "min": [
        -0.9722172021865845,
        -0.9654710292816162,
        -0.9949292540550232
      ],
      "type": "VEC3"
    },
    {
      "bufferView": 2,
      "componentType": 5126,
      "count": 85,
      "max": [
        0.23795996606349945,
        0.688841700553894
      ],
      "min": [
        0.051395218819379807,
        0.3055257797241211
      ],
      "type": "VEC2"
    },
    {
      "bufferView": 1,
      "componentType": 5125,
      "count": 462,
      "type": "SCALAR"
    },
    {
      "bufferView": 3,
      "byteOffset": 2040,
      "componentType": 5126,
      "count": 2032,
      "max": [
        51.19851303100586,
        51.19852066040039,
        326.58294677734375
      ],
      "min": [
        -51.198516845703125,
        -51.19851303100586,
        -1.455336093902588
      ],
      "type": "VEC3"
    },
    {
      "bufferView": 3,
      "byteOffset": 26424,
      "componentType": 5126,
      "count": 2032,
      "max": [
        1.0,
        0.9999880194664001,
        0.9994567036628723
      ],
      "min": [
        -1.0,
        -0.9999892115592957,
        -1.0
      ],
      "type": "VEC3"
    },
    {
      "bufferView": 4,
      "componentType": 5126,
      "count": 2032,
      "max": [
        0.957523763179779,
        0.9999989867210388,
        0.45331358909606934,
        1.0
      ],
      "min": [
        -1.0,
        -0.9999988079071045,
        -0.9999999403953552,
        -1.0
      ],
      "type": "VEC4"
    },
    {
      "bufferView": 2,
      "byteOffset": 680,
      "componentType": 5126,
      "count": 2032,
      "max": [
        0.9979999661445618,
        0.9892146587371826
      ],
      "min": [
        0.053205706179142,
        0.6942974925041199
      ],
      "type": "VEC2"
    },
    {
      "bufferView": 1,
      "byteOffset": 1848,
      "componentType": 5125,
      "count": 12132,
      "type": "SCALAR"
    },
    {
      "bufferView": 3,
      "byteOffset": 50808,
      "componentType": 5126,
      "count": 648,
      "max": [
        57.332427978515625,
        56.18099594116211,
        -1.64434814453125
      ],
      "min": [
        -56.762908935546875,
        -56.180992126464844,
        -177.8372802734375
      ],
      "type": "VEC3"
    },
    {
      "bufferView": 3,
      "byteOffset": 58584,
      "componentType": 5126,
      "count": 648,
      "max": [
        1.0,
        0.9848079085350037,
        1.0
      ],
      "min": [
        -1.0,
        -0.9848078489303589,
        -1.0
      ],
      "type": "VEC3"
    },
    {
      "bufferView": 2,
      "byteOffset": 16936,
      "componentType": 5126,
      "count": 648,
      "max": [
        0.9574528932571411,
        0.3695935904979706
      ],
      "min": [
        0.5628479719161987,
        0.09748460352420807
      ],
      "type": "VEC2"
    },
    {
      "bufferView": 1,
      "byteOffset": 50376,
      "componentType": 5125,
      "count": 1932,
      "type": "SCALAR"
    },
    {
      "bufferView": 5,
      "componentType": 5126,
      "count": 5,
      "max": [
        1.0,
        0.0,
        1.800887474701085e-07,
        0.0,
        0.988595187664032,
        1.0,
        2.4687384581056904e-08,
        0.0,
        1.7694334530915512e-07,
        1.574572081608494e-07,
        1.0,
        0.0,
        0.0,
        83.95314025878906,
        2.8786915208911523e-05,
        1.0
      ],
      "min": [
        -0.24738472700119019,
        -0.988595187664032,
        0.0,
        0.0,
        0.0,
        -0.24738472700119019,
        -1.3663924391948967e-07,
        0.0,
        -9.858639460347263e-10,
        0.0,
        1.0,
        0.0,
        -369.3907165527344,
        0.0,
        -2.474453503964469e-05,
        1.0
      ],
      "type": "MAT4"
    },
    {
      "bufferView": 0,
      "componentType": 5123,
      "count": 85,
      "type": "VEC4"
    },
    {
      "bufferView": 4,
      "byteOffset": 32512,
      "componentType": 5126,
      "count": 85,
      "max": [
        1.0,
        0.5,
        0.0,
        0.0
      ],
      "min": [
        0.5,
        0.0,
        0.0,
        0.0
      ],
      "type": "VEC4"
    },
    {
      "bufferView": 6,
      "componentType": 5126,
      "count": 91,
      "max": [
        3.0
      ],
      "min": [
        0.0
      ],
      "type": "SCALAR"
    },
    {
      "bufferView": 8,
      "componentType": 5126,
      "count": 91,
      "max": [
        6.5503158452884236e-15,
        2.8572075672112656e-16,
        0.04361938685178757,
        1.0
      ],
      "min": [
        6.544081259280158e-15,
        -1.3234891378570253e-23,
        -1.1016618872649675e-17,
        0.9990482330322266
      ],
      "type": "VEC4"
    },
    {
      "bufferView": 6,
      "byteOffset": 364,
      "componentType": 5126,
      "count": 91,
      "max": [
        3.0
      ],
      "min": [
        0.0
      ],
      "type": "SCALAR"
    },
    {
      "bufferView": 8,
      "byteOffset": 1456,
      "componentType": 5126,
      "count": 91,
      "max": [
        -6.074586943920983e-18,
        5.169754420492295e-16,
        0.05535470321774483,
        0.9999309778213501
      ],
      "min": [
        -2.8618983430289314e-17,
        5.16218406352621e-16,
        0.011749508790671825,
        0.9984667301177979
      ],
      "type": "VEC4"
    },
    {
      "bufferView": 6,
      "byteOffset": 728,
      "componentType": 5126,
      "count": 1,
      "max": [
        0.0
      ],
      "min": [
        0.0
      ],
      "type": "SCALAR"
    },
    {
      "bufferView": 7,
      "componentType": 5126,
      "count": 1,
      "max": [
        19.392364501953125,
        0.0001373291015625,
        -1.466194589738734e-06
      ],
      "min": [
        19.392364501953125,
        0.0001373291015625,
        -1.466194589738734e-06
      ],
      "type": "VEC3"
    },
    {
      "bufferView": 6,
      "byteOffset": 732,
      "componentType": 5126,
      "count": 91,
      "max": [
        3.0
      ],
      "min": [
        0.0
      ],
      "type": "SCALAR"
    },
    {
      "bufferView": 7,
      "byteOffset": 12,
      "componentType": 5126,
      "count": 91,
      "max": [
        0.9999999403953552,
        0.9999999403953552,
        1.0
      ],
      "min": [
        0.6495891809463501,
        0.9999999403953552,
        1.0
      ],
      "type": "VEC3"
    },
    {
      "bufferView": 6,
      "byteOffset": 1096,
      "componentType": 5126,
      "count": 91,
      "max": [
        3.0
      ],
      "min": [
        0.0
      ],
      "type": "SCALAR"
    },
    {
      "bufferView": 8,
      "byteOffset": 2912,
      "componentType": 5126,
      "count": 91,
      "max": [
        4.708121115193364e-10,
        8.159383213524052e-08,
        0.03785398602485657,
        0.9999992251396179
      ],
      "min": [
        -3.0886522228712465e-09,
        8.153541131150632e-08,
        -0.0057701668702065945,
        0.9992832541465759
      ],
      "type": "VEC4"
    },
    {
      "bufferView": 6,
      "byteOffset": 1460,
      "componentType": 5126,
      "count": 91,
      "max": [
        3.0
      ],
      "min": [
        0.0
      ],
      "type": "SCALAR"
    },
    {
      "bufferView": 8,
      "byteOffset": 4368,
      "componentType": 5126,
      "count": 91,
      "max": [
        8.116072791608531e-08,
        6.717332468042514e-08,
        0.7332719564437866,
        0.7112731337547302
      ],
      "min": [
        6.195876522951949e-08,
        4.7881744791311576e-08,
        0.7029157280921936,
        0.6799354553222656
      ],
      "type": "VEC4"
    }
  ],
  "animations": [
    {
      "channels": [
        {
          "sampler": 0,
          "target": {
            "node": 11,
            "path": "rotation"
          }
        },
        {
          "sampler": 1,
          "target": {
            "node": 10,
            "path": "rotation"
          }
        },
        {
          "sampler": 2,
          "target": {
            "node": 9,
            "path": "translation"
          }
        },
        {
          "sampler": 3,
          "target": {
            "node": 9,
            "path": "scale"
          }
        },
        {
          "sampler": 4,
          "target": {
            "node": 9,
            "path": "rotation"
          }
        },
        {
          "sampler": 5,
          "target": {
            "node": 8,
            "path": "rotation"
          }
        }
      ],
      "name": "Take 001",
      "samplers": [
        {
          "input": 16,
          "interpolation": "LINEAR",
          "output": 17
        },
        {
          "input": 18,
          "interpolation": "LINEAR",
          "output": 19
        },
        {
          "input": 20,
          "interpolation": "LINEAR",
          "output": 21
        },
        {
          "input": 22,
          "interpolation": "LINEAR",
          "output": 23
        },
        {
          "input": 24,
          "interpolation": "LINEAR",
          "output": 25
        },
        {
          "input": 26,
          "interpolation": "LINEAR",
          "output": 27
        }
      ]
    }
  ],
  "asset": {
    "extras": {
      "author": "Anthony Yanez (https://sketchfab.com/paulyanez)",
      "license": "CC-BY-4.0 (http://creativecommons.org/licenses/by/4.0/)",
      "source": "https://sketchfab.com/3d-models/obsidian-candle-game-of-thrones-3f34c1074a104eddb094ed0ee14375dd",
      "title": "Obsidian Candle (Game of Thrones)"
    },
    "generator": "Sketchfab-12.66.0",
    "version": "2.0"
  },
  "bufferViews": [
    {
      "buffer": 0,
      "byteLength": 680,
      "byteStride": 8,
      "name": "shortBufferViews",
      "target": 34962
    },
    {
      "buffer": 0,
      "byteLength": 58104,
      "byteOffset": 680,
      "name": "floatBufferViews",
      "target": 34963
    },
    {
      "buffer": 0,
      "byteLength": 22120,
      "byteOffset": 58784,
      "byteStride": 8,
      "name": "floatBufferViews",
      "target": 34962
    },
    {
      "buffer": 0,
      "byteLength": 66360,
      "byteOffset": 80904,
      "byteStride": 12,
      "name": "floatBufferViews",
      "target": 34962
    },
    {
      "buffer": 0,
      "byteLength": 33872,
      "byteOffset": 147264,
      "byteStride": 16,
      "name": "floatBufferViews",
      "target": 34962
    },
    {
      "buffer": 0,
      "byteLength": 320,
      "byteOffset": 181136,
      "name": "floatBufferViews"
    },
    {
      "buffer": 0,
      "byteLength": 1824,
      "byteOffset": 181456,
      "name": "floatBufferViews"
    },
    {
      "buffer": 0,
      "byteLength": 1104,
      "byteOffset": 183280,
      "byteStride": 12,
      "name": "floatBufferViews"
    },
    {
      "buffer": 0,
      "byteLength": 5824,
      "byteOffset": 184384,
      "byteStride": 16,
      "name": "floatBufferViews"
    }
  ],
  "buffers": [
    {
      "byteLength": 190208,
      "uri": "scene.bin"
    }
  ],
  "images": [
    {
      "uri": "textures/Light_baseColor.jpeg"
    },
    {
      "uri": "textures/Candle_normal.png"
    }
  ],
  "materials": [
    {
      "doubleSided": true,
      "emissiveFactor": [
        1.0,
        1.0,
        1.0
      ],
      "name": "Light",
      "pbrMetallicRoughness": {
        "baseColorTexture": {
          "index": 0
        },
        "metallicFactor": 0.05,
        "roughnessFactor": 0.8929713596
      }
    },
    {
      "doubleSided": true,
      "name": "Candle",
      "normalTexture": {
        "index": 1
      },
      "pbrMetallicRoughness": {
        "baseColorTexture": {
          "index": 0
        },
        "roughnessFactor": 0.0
      }
    },
    {
      "doubleSided": true,
      "name": "Stand",
      "pbrMetallicRoughness": {
        "baseColorFactor": [
          0.3289394032,
          0.3289394032,
          0.3289394032,
          1.0
        ],
        "baseColorTexture": {
          "index": 0
        },
        "roughnessFactor": 0.8929713596
      }
    }
  ],
  "meshes": [
    {
      "name": "Flame_Light_0",
      "primitives": [
        {
          "attributes": {
            "JOINTS_0": 14,
            "NORMAL": 1,
            "POSITION": 0,
            "TEXCOORD_0": 2,
            "WEIGHTS_0": 15
          },
          "indices": 3,
          "material": 0,
          "mode": 4
        }
      ]
    },
    {
      "name": "Obsidian Candle_Candle_0",
      "primitives": [
        {
          "attributes": {
            "NORMAL": 5,
            "POSITION": 4,
            "TANGENT": 6,
            "TEXCOORD_0": 7
          },
          "indices": 8,
          "material": 1,
          "mode": 4
        }
      ]
    },
    {
      "name": "Obsidian Candle_Stand_0",
      "primitives": [
        {
          "attributes": {
            "NORMAL": 10,
            "POSITION": 9,
            "TEXCOORD_0": 11
          },
          "indices": 12,
          "material": 2,
          "mode": 4
        }
      ]
    }
  ],
  "nodes": [
    {
      "children": [
        1
      ],
      "matrix": [
        1.0,
        0.0,
        0.0,
        0.0,
        0.0,
        2.220446049250313e-16,
        -1.0,
        0.0,
        0.0,
        1.0,
        2.220446049250313e-16,
        0.0,
        0.0,
        0.0,
        0.0,
        1.0
      ],
      "name": "Sketchfab_model"
    },
    {
      "children": [
        2
      ],
      "matrix": [
        1.0,
        0.0,
        0.0,
        0.0,
        0.0,
        0.0,
        1.0,
        0.0,
        0.0,
        -1.0,
        0.0,
        0.0,
        0.0,
        0.0,
        0.0,
        1.0
      ],
      "name": "Obsidian Candle.FBX"
    },
    {
      "children": [
        3
      ],
      "name": "Object_2"
    },
    {
      "children": [
        4
      ],
      "name": "RootNode"
    },
    {
      "children": [
        5,
        7,
        6,
        12,
        15
      ],
      "name": "Object_4"
    },
    {
      "children": [
        8
      ],
      "name": "_rootJoint"
    },
    {
      "matrix": [
        0.9999999999999999,
        -1.8816930884942923e-17,
        2.6469779601696886e-23,
        0.0,
        2.646977960284909e-23,
        6.123233995736765e-17,
        -0.9999999999999999,
        0.0,
        1.8816930884942926e-17,
        1.0,
        6.123233995736766e-17,
        0.0,
        2.6645352591003757e-15,
        -5.684341886080802e-14,
        3.3881317890172014e-21,
        1.0
      ],
      "name": "Object_6"
    },
    {
      "mesh": 0,
      "name": "Object_7",
      "skin": 0
    },
    {
      "children": [
        9
      ],
      "name": "Bone001_00",
      "rotation": [
        5.495170896097079e-08,
        6.024863807851943e-08,
        0.7029156684875488,
        0.711273193359375
      ],
      "translation": [
        2.126303195953369,
        316.6861877441406,
        1.384279221383622e-05
      ]
    },
    {
      "children": [
        10
      ],
      "name": "Bone002_01",
      "rotation": [
        4.707948475513035e-10,
        8.159252473660672e-08,
        -0.005770166404545307,
        0.9999833703041077
      ],
      "scale": [
        0.9999999403953552,
        0.9999999403953552,
        1.0
      ],
      "translation": [
        19.39239501953125,
        0.00013756752014160156,
        -1.466194589738734e-06
      ]
    },
    {
      "children": [
        11
      ],
      "name": "Bone003_02",
      "rotation": [
        2.4874208815877383e-15,
        2.9228003428087606e-17,
        0.011749508790671825,
        0.9999309778213501
      ],
      "scale": [
        1.0000003576278687,
        1.0000003576278687,
        1.0
      ],
      "translation": [
        25.879180908203125,
        -3.3855438232421875e-05,
        1.4551915228366852e-11
      ]
    },
    {
      "name": "Bone004_03",
      "rotation": [
        9.593889030922679e-15,
        7.105428204633949e-15,
        7.275958481545164e-12,
        1.0
      ],
      "scale": [
        0.9999999403953552,
        0.9999999403953552,
        1.0
      ],
      "translation": [
        10.352081298828125,
        2.6702880859375e-05,
        4.1747262002900243e-07
      ]
    },
    {
      "children": [
        13,
        14
      ],
      "name": "Obsidian Candle",
      "rotation": [
        -0.7071068286895752,
        -0.0,
        0.0,
        0.7071068286895752
      ]
    },
    {
      "mesh": 1,
      "name": "Obsidian Candle_Candle_0"
    },
    {
      "mesh": 2,
      "name": "Obsidian Candle_Stand_0"
    },
    {
      "name": "Flame",
      "rotation": [
        -0.7071068286895752,
        -0.0,
        0.0,
        0.7071068286895752
      ]
    }
  ],
  "samplers": [
    {
      "magFilter": 9729,
      "minFilter": 9987,
      "wrapS": 10497,
      "wrapT": 10497
    }
  ],
  "scene": 0,
  "scenes": [
    {
      "name": "Sketchfab_Scene",
      "nodes": [
        0
      ]
    }
  ],
  "skins": [
    {
      "inverseBindMatrices": 13,
      "joints": [
        5,
        8,
        9,
        10,
        11
      ],
      "skeleton": 5
    }
  ],
  "textures": [
    {
      "sampler": 0,
      "source": 0
    },
    {
      "sampler": 0,
      "source": 1
    }
  ]
}
